<?xml version="1.0" encoding="UTF-8" standalone="no"?>
<!DOCTYPE svg PUBLIC "-//W3C//DTD SVG 1.1//EN"
 "http://www.w3.org/Graphics/SVG/1.1/DTD/svg11.dtd">
<!-- Generated by graphviz version 9.0.0 (20230911.1827)
 -->
<!-- Title: G Pages: 1 -->
<svg width="159pt" height="221pt"
 viewBox="0.00 0.00 158.81 221.00" xmlns="http://www.w3.org/2000/svg" xmlns:xlink="http://www.w3.org/1999/xlink">
<g id="graph0" class="graph" transform="scale(1 1) rotate(0) translate(4 217)">
<title>G</title>
<polygon fill="white" stroke="none" points="-4,4 -4,-217 154.81,-217 154.81,4 -4,4"/>
<!-- Sequence data -->
<g id="node1" class="node">
<title>Sequence data</title>
<ellipse fill="none" stroke="black" cx="75.41" cy="-195" rx="64.15" ry="18"/>
<text text-anchor="middle" x="75.41" y="-189.95" font-family="Times,serif" font-size="14.00">Sequence data</text>
</g>
<!-- Alignment -->
<g id="node2" class="node">
<title>Alignment</title>
<ellipse fill="none" stroke="black" cx="75.41" cy="-106.5" rx="50.84" ry="18"/>
<text text-anchor="middle" x="75.41" y="-101.45" font-family="Times,serif" font-size="14.00">Alignment</text>
</g>
<!-- Sequence data&#45;&gt;Alignment -->
<g id="edge1" class="edge">
<title>Sequence data&#45;&gt;Alignment</title>
<path fill="none" stroke="black" d="M75.41,-176.91C75.41,-165.26 75.41,-149.55 75.41,-136.02"/>
<polygon fill="black" stroke="black" points="78.91,-136.36 75.41,-126.36 71.91,-136.36 78.91,-136.36"/>
<text text-anchor="middle" x="102.03" y="-145.7" font-family="Times,serif" font-size="14.00"> MAFFT </text>
</g>
<!-- Phylogenetic tree -->
<g id="node3" class="node">
<title>Phylogenetic tree</title>
<ellipse fill="none" stroke="black" cx="75.41" cy="-18" rx="75.41" ry="18"/>
<text text-anchor="middle" x="75.41" y="-12.95" font-family="Times,serif" font-size="14.00">Phylogenetic tree</text>
</g>
<!-- Alignment&#45;&gt;Phylogenetic tree -->
<g id="edge2" class="edge">
<title>Alignment&#45;&gt;Phylogenetic tree</title>
<path fill="none" stroke="black" d="M75.41,-88.41C75.41,-76.76 75.41,-61.05 75.41,-47.52"/>
<polygon fill="black" stroke="black" points="78.91,-47.86 75.41,-37.86 71.91,-47.86 78.91,-47.86"/>
<text text-anchor="middle" x="103.16" y="-57.2" font-family="Times,serif" font-size="14.00"> IQTREE </text>
</g>
</g>
</svg>
