<?xml version="1.0" encoding="UTF-8" standalone="no"?>
<!DOCTYPE svg PUBLIC "-//W3C//DTD SVG 1.1//EN"
 "http://www.w3.org/Graphics/SVG/1.1/DTD/svg11.dtd">
<!-- Generated by graphviz version 9.0.0 (20230911.1827)
 -->
<!-- Title: G Pages: 1 -->
<svg width="356pt" height="188pt"
 viewBox="0.00 0.00 355.60 188.00" xmlns="http://www.w3.org/2000/svg" xmlns:xlink="http://www.w3.org/1999/xlink">
<g id="graph0" class="graph" transform="scale(1 1) rotate(0) translate(4 184)">
<title>G</title>
<polygon fill="white" stroke="none" points="-4,4 -4,-184 351.6,-184 351.6,4 -4,4"/>
<!-- root (/) -->
<g id="node1" class="node">
<title>root (/)</title>
<ellipse fill="none" stroke="black" cx="147" cy="-162" rx="37.02" ry="18"/>
<text text-anchor="middle" x="147" y="-156.95" font-family="Times,serif" font-size="14.00">root (/)</text>
</g>
<!-- bin -->
<g id="node2" class="node">
<title>bin</title>
<ellipse fill="none" stroke="black" cx="27" cy="-90" rx="27" ry="18"/>
<text text-anchor="middle" x="27" y="-84.95" font-family="Times,serif" font-size="14.00">bin</text>
</g>
<!-- root (/)&#45;&#45;bin -->
<g id="edge1" class="edge">
<title>root (/)&#45;&#45;bin</title>
<path fill="none" stroke="black" d="M123.86,-147.5C101.52,-134.47 68.05,-114.95 46.88,-102.6"/>
</g>
<!-- etc -->
<g id="node3" class="node">
<title>etc</title>
<ellipse fill="none" stroke="black" cx="99" cy="-90" rx="27" ry="18"/>
<text text-anchor="middle" x="99" y="-84.95" font-family="Times,serif" font-size="14.00">etc</text>
</g>
<!-- root (/)&#45;&#45;etc -->
<g id="edge2" class="edge">
<title>root (/)&#45;&#45;etc</title>
<path fill="none" stroke="black" d="M135.62,-144.41C127.75,-132.93 117.34,-117.75 109.64,-106.51"/>
</g>
<!-- HOME (~) -->
<g id="node4" class="node">
<title>HOME (~)</title>
<ellipse fill="none" stroke="black" cx="196" cy="-90" rx="52.38" ry="18"/>
<text text-anchor="middle" x="196" y="-84.95" font-family="Times,serif" font-size="14.00">HOME (~)</text>
</g>
<!-- root (/)&#45;&#45;HOME (~) -->
<g id="edge3" class="edge">
<title>root (/)&#45;&#45;HOME (~)</title>
<path fill="none" stroke="black" d="M158.61,-144.41C166.31,-133.41 176.38,-119.03 184.13,-107.96"/>
</g>
<!-- lib -->
<g id="node5" class="node">
<title>lib</title>
<ellipse fill="none" stroke="black" cx="293" cy="-90" rx="27" ry="18"/>
<text text-anchor="middle" x="293" y="-84.95" font-family="Times,serif" font-size="14.00">lib</text>
</g>
<!-- root (/)&#45;&#45;lib -->
<g id="edge4" class="edge">
<title>root (/)&#45;&#45;lib</title>
<path fill="none" stroke="black" d="M172.77,-148.65C200.93,-135.14 245.52,-113.76 271.76,-101.19"/>
</g>
<!-- Documents -->
<g id="node6" class="node">
<title>Documents</title>
<ellipse fill="none" stroke="black" cx="72" cy="-18" rx="53.4" ry="18"/>
<text text-anchor="middle" x="72" y="-12.95" font-family="Times,serif" font-size="14.00">Documents</text>
</g>
<!-- HOME (~)&#45;&#45;Documents -->
<g id="edge5" class="edge">
<title>HOME (~)&#45;&#45;Documents</title>
<path fill="none" stroke="black" d="M169.7,-74.15C148.8,-62.36 119.69,-45.92 98.69,-34.07"/>
</g>
<!-- Downloads -->
<g id="node7" class="node">
<title>Downloads</title>
<ellipse fill="none" stroke="black" cx="196" cy="-18" rx="52.89" ry="18"/>
<text text-anchor="middle" x="196" y="-12.95" font-family="Times,serif" font-size="14.00">Downloads</text>
</g>
<!-- HOME (~)&#45;&#45;Downloads -->
<g id="edge6" class="edge">
<title>HOME (~)&#45;&#45;Downloads</title>
<path fill="none" stroke="black" d="M196,-71.7C196,-60.85 196,-46.92 196,-36.1"/>
</g>
<!-- Pictures -->
<g id="node8" class="node">
<title>Pictures</title>
<ellipse fill="none" stroke="black" cx="307" cy="-18" rx="40.6" ry="18"/>
<text text-anchor="middle" x="307" y="-12.95" font-family="Times,serif" font-size="14.00">Pictures</text>
</g>
<!-- HOME (~)&#45;&#45;Pictures -->
<g id="edge7" class="edge">
<title>HOME (~)&#45;&#45;Pictures</title>
<path fill="none" stroke="black" d="M220.36,-73.64C239.38,-61.65 265.61,-45.1 284.21,-33.37"/>
</g>
</g>
</svg>
